<svg width="40" height="40" viewBox="0 0 40 40" fill="none" xmlns="http://www.w3.org/2000/svg">
<g clip-path="url(#clip0_9_384)">
<path d="M36.25 0H3.75C2.75544 0 1.80161 0.395088 1.09835 1.09835C0.395088 1.80161 0 2.75544 0 3.75L0 36.25C0 37.2446 0.395088 38.1984 1.09835 38.9016C1.80161 39.6049 2.75544 40 3.75 40H36.25C37.2446 40 38.1984 39.6049 38.9016 38.9016C39.6049 38.1984 40 37.2446 40 36.25V3.75C40 2.75544 39.6049 1.80161 38.9016 1.09835C38.1984 0.395088 37.2446 0 36.25 0ZM2.5 3.75C2.5 3.41848 2.6317 3.10054 2.86612 2.86612C3.10054 2.6317 3.41848 2.5 3.75 2.5H36.25C36.5815 2.5 36.8995 2.6317 37.1339 2.86612C37.3683 3.10054 37.5 3.41848 37.5 3.75V7.5H2.5V3.75ZM37.5 36.25C37.5 36.5815 37.3683 36.8995 37.1339 37.1339C36.8995 37.3683 36.5815 37.5 36.25 37.5H3.75C3.41848 37.5 3.10054 37.3683 2.86612 37.1339C2.6317 36.8995 2.5 36.5815 2.5 36.25V10H37.5V36.25Z" fill="#170F49"/>
<circle cx="6.25" cy="5.01257" r="1.25" fill="#170F49"/>
<circle cx="10" cy="5.01257" r="1.25" fill="#170F49"/>
<circle cx="13.75" cy="5.01257" r="1.25" fill="#170F49"/>
</g>
<defs>
<clipPath id="clip0_9_384">
<rect width="40" height="40" fill="white"/>
</clipPath>
</defs>
</svg>
