<svg width="40" height="40" viewBox="0 0 40 40" fill="none" xmlns="http://www.w3.org/2000/svg">
<path d="M35.5172 11.464L28.5359 4.48121C28.3038 4.24901 28.0282 4.06481 27.7248 3.93914C27.4215 3.81346 27.0963 3.74878 26.768 3.74878C26.4396 3.74878 26.1145 3.81346 25.8111 3.93914C25.5078 4.06481 25.2322 4.24901 25 4.48121L5.73282 23.75C5.49967 23.9813 5.31481 24.2566 5.18901 24.56C5.06321 24.8634 4.99896 25.1887 5.00001 25.5172V32.5C5.00001 33.163 5.2634 33.7989 5.73225 34.2677C6.20109 34.7366 6.83697 35 7.50001 35H14.4828C14.8113 35.001 15.1366 34.9368 15.44 34.811C15.7434 34.6852 16.0187 34.5003 16.25 34.2672L35.5172 15C35.7494 14.7678 35.9336 14.4922 36.0593 14.1888C36.185 13.8855 36.2496 13.5603 36.2496 13.232C36.2496 12.9036 36.185 12.5785 36.0593 12.2752C35.9336 11.9718 35.7494 11.6962 35.5172 11.464ZM8.0172 25L21.25 11.7672L23.8578 14.375L10.625 27.6062L8.0172 25ZM7.50001 28.0172L11.9828 32.5H7.50001V28.0172ZM15 31.9828L12.3922 29.375L25.625 16.1422L28.2328 18.75L15 31.9828ZM30 16.9828L23.0172 9.99996L26.7672 6.24996L33.75 13.2312L30 16.9828Z" fill="#170F49"/>
</svg>
