<svg width="40" height="40" viewBox="0 0 40 40" fill="none" xmlns="http://www.w3.org/2000/svg">
<path d="M2.5 5H5.41667L6.66667 10M6.66667 10L10.8333 26.6667H32.5L36.6667 10H6.66667Z" stroke="#170F49" stroke-width="3.33333" stroke-linecap="round" stroke-linejoin="round"/>
<path d="M10.833 35C12.2137 35 13.333 33.8807 13.333 32.5C13.333 31.1193 12.2137 30 10.833 30C9.4523 30 8.33301 31.1193 8.33301 32.5C8.33301 33.8807 9.4523 35 10.833 35Z" stroke="#170F49" stroke-width="3.33333" stroke-linecap="round" stroke-linejoin="round"/>
<path d="M32.5 35C33.8807 35 35 33.8807 35 32.5C35 31.1193 33.8807 30 32.5 30C31.1193 30 30 31.1193 30 32.5C30 33.8807 31.1193 35 32.5 35Z" stroke="#170F49" stroke-width="3.33333" stroke-linecap="round" stroke-linejoin="round"/>
</svg>
