<svg width="40" height="40" viewBox="0 0 40 40" fill="none" xmlns="http://www.w3.org/2000/svg">
<g clip-path="url(#clip0_9_418)">
<path d="M36.6663 28.3366C36.6656 30.6159 35.8865 32.8265 34.458 34.6026C33.0296 36.3787 31.0374 37.6138 28.8113 38.1033L27.748 34.9133C28.7217 34.7529 29.6478 34.3785 30.4593 33.8171C31.2709 33.2556 31.9478 32.5212 32.4413 31.6666H28.333C27.449 31.6666 26.6011 31.3154 25.976 30.6903C25.3509 30.0652 24.9997 29.2173 24.9997 28.3333V21.6666C24.9997 20.7825 25.3509 19.9347 25.976 19.3096C26.6011 18.6844 27.449 18.3333 28.333 18.3333H33.2297C32.823 15.1114 31.2545 12.1487 28.8187 10.001C26.3829 7.85338 23.2471 6.66838 19.9997 6.66838C16.7523 6.66838 13.6165 7.85338 11.1806 10.001C8.74481 12.1487 7.17639 15.1114 6.76967 18.3333H11.6663C12.5504 18.3333 13.3982 18.6844 14.0234 19.3096C14.6485 19.9347 14.9997 20.7825 14.9997 21.6666V28.3333C14.9997 29.2173 14.6485 30.0652 14.0234 30.6903C13.3982 31.3154 12.5504 31.6666 11.6663 31.6666H6.66634C5.78229 31.6666 4.93444 31.3154 4.30932 30.6903C3.6842 30.0652 3.33301 29.2173 3.33301 28.3333V19.9999C3.33301 10.7949 10.7947 3.33325 19.9997 3.33325C29.2047 3.33325 36.6663 10.7949 36.6663 19.9999V28.3366ZM33.333 28.3333V21.6666H28.333V28.3333H33.333ZM6.66634 21.6666V28.3333H11.6663V21.6666H6.66634Z" fill="#170F49"/>
</g>
<defs>
<clipPath id="clip0_9_418">
<rect width="40" height="40" fill="white"/>
</clipPath>
</defs>
</svg>
