<svg width="32" height="32" viewBox="0 0 32 32" fill="none" xmlns="http://www.w3.org/2000/svg">
<path fill-rule="evenodd" clip-rule="evenodd" d="M4.7998 8.00002C4.7998 7.11638 5.51616 6.40002 6.3998 6.40002H25.5998C26.4835 6.40002 27.1998 7.11638 27.1998 8.00002C27.1998 8.88367 26.4835 9.60002 25.5998 9.60002H6.3998C5.51616 9.60002 4.7998 8.88367 4.7998 8.00002Z" fill="black"/>
<path fill-rule="evenodd" clip-rule="evenodd" d="M4.7998 16C4.7998 15.1164 5.51616 14.4 6.3998 14.4H25.5998C26.4835 14.4 27.1998 15.1164 27.1998 16C27.1998 16.8837 26.4835 17.6 25.5998 17.6H6.3998C5.51616 17.6 4.7998 16.8837 4.7998 16Z" fill="#111827"/>
<path fill-rule="evenodd" clip-rule="evenodd" d="M4.7998 24C4.7998 23.1163 5.51616 22.4 6.3998 22.4H25.5998C26.4835 22.4 27.1998 23.1163 27.1998 24C27.1998 24.8837 26.4835 25.6 25.5998 25.6H6.3998C5.51616 25.6 4.7998 24.8837 4.7998 24Z" fill="#111827"/>
</svg>
