<svg width="40" height="40" viewBox="0 0 40 40" fill="none" xmlns="http://www.w3.org/2000/svg">
<path d="M24.9997 31.88C26.4213 32.2928 27.8944 32.5015 29.3747 32.5C31.7554 32.5034 34.1051 31.9606 36.243 30.9133C36.3063 29.4195 35.8807 27.9458 35.031 26.7155C34.1813 25.4853 32.9537 24.5656 31.5342 24.0958C30.1148 23.6261 28.5809 23.6319 27.165 24.1123C25.7491 24.5928 24.5285 25.5217 23.688 26.7583M24.9997 31.88V31.875C24.9997 30.02 24.523 28.275 23.688 26.7583M24.9997 31.88V32.0567C21.7922 33.9885 18.1174 35.0063 14.373 35C10.488 35 6.85305 33.925 3.74971 32.0567L3.74805 31.875C3.74677 29.5158 4.53074 27.2232 5.97635 25.3588C7.42197 23.4943 9.447 22.1641 11.7322 21.5777C14.0174 20.9913 16.4328 21.1821 18.5975 22.1202C20.7622 23.0582 22.5532 24.69 23.688 26.7583M19.9997 10.625C19.9997 12.1168 19.4071 13.5476 18.3522 14.6025C17.2973 15.6574 15.8666 16.25 14.3747 16.25C12.8829 16.25 11.4521 15.6574 10.3972 14.6025C9.34235 13.5476 8.74972 12.1168 8.74972 10.625C8.74972 9.13316 9.34235 7.70242 10.3972 6.64752C11.4521 5.59263 12.8829 5 14.3747 5C15.8666 5 17.2973 5.59263 18.3522 6.64752C19.4071 7.70242 19.9997 9.13316 19.9997 10.625ZM33.7497 14.375C33.7497 15.5353 33.2888 16.6481 32.4683 17.4686C31.6478 18.2891 30.535 18.75 29.3747 18.75C28.2144 18.75 27.1016 18.2891 26.2811 17.4686C25.4607 16.6481 24.9997 15.5353 24.9997 14.375C24.9997 13.2147 25.4607 12.1019 26.2811 11.2814C27.1016 10.4609 28.2144 10 29.3747 10C30.535 10 31.6478 10.4609 32.4683 11.2814C33.2888 12.1019 33.7497 13.2147 33.7497 14.375Z" stroke="#170F49" stroke-width="2" stroke-linecap="round" stroke-linejoin="round"/>
</svg>
