<svg width="20" height="20" viewBox="0 0 20 20" fill="none" xmlns="http://www.w3.org/2000/svg">
<path d="M12.2509 17.3851L12.26 17.3915C13.0471 17.8926 13.9815 18.1102 14.909 18.0084C15.8365 17.9065 16.7014 17.4913 17.361 16.8313L17.9339 16.2584C18.0609 16.1315 18.1616 15.9808 18.2303 15.815C18.299 15.6492 18.3344 15.4714 18.3344 15.2919C18.3344 15.1124 18.299 14.9347 18.2303 14.7688C18.1616 14.603 18.0609 14.4524 17.9339 14.3255L15.5173 11.9107C15.3905 11.7838 15.2398 11.683 15.074 11.6143C14.9081 11.5456 14.7304 11.5102 14.5509 11.5102C14.3714 11.5102 14.1937 11.5456 14.0278 11.6143C13.862 11.683 13.7113 11.7838 13.5845 11.9107C13.3282 12.1669 12.9808 12.3108 12.6185 12.3108C12.2562 12.3108 11.9087 12.1669 11.6525 11.9107L7.78853 8.04586C7.53238 7.78963 7.38849 7.44217 7.38849 7.07987C7.38849 6.71757 7.53238 6.3701 7.78853 6.11388C7.91549 5.987 8.01621 5.83633 8.08493 5.67051C8.15365 5.50468 8.18902 5.32694 8.18902 5.14744C8.18902 4.96794 8.15365 4.79019 8.08493 4.62437C8.01621 4.45854 7.91549 4.30788 7.78853 4.18099L5.37287 1.76625C5.11665 1.51011 4.76918 1.36621 4.40688 1.36621C4.04458 1.36621 3.69712 1.51011 3.44089 1.76625L2.86704 2.33919C2.20719 2.99883 1.79213 3.86385 1.69044 4.79131C1.58875 5.71878 1.80652 6.65318 2.30776 7.44012L2.31323 7.44923C4.96041 11.3658 8.33385 14.7386 12.2509 17.3851V17.3851Z" stroke="#170F49" stroke-width="1.4" stroke-linecap="round" stroke-linejoin="round"/>
</svg>
