<svg xmlns="http://www.w3.org/2000/svg" width="40" height="40" viewBox="0 0 40 40" fill="none">
<rect width="40" height="40" rx="8" fill="#F7F7FF"/>
<path d="M20 10.85C19.3649 10.85 18.85 11.3649 18.85 12V28C18.85 28.6351 19.3649 29.15 20 29.15C20.6351 29.15 21.15 28.6351 21.15 28V12C21.15 11.3649 20.6351 10.85 20 10.85Z" fill="#686868" stroke="#686868" stroke-width="0.3" stroke-linecap="round"/>
<path d="M12 18.85C11.3649 18.85 10.85 19.3649 10.85 20C10.85 20.6351 11.3649 21.15 12 21.15H28C28.6351 21.15 29.15 20.6351 29.15 20C29.15 19.3649 28.6351 18.85 28 18.85H12Z" fill="#686868" stroke="#686868" stroke-width="0.3" stroke-linecap="round"/>
</svg>