<svg width="21" height="20" viewBox="0 0 21 20" fill="none" xmlns="http://www.w3.org/2000/svg">
<path d="M19.1198 9.91824C19.1164 11.3853 18.7979 12.6796 18.1542 13.8824C17.5477 15.0175 16.7108 15.9628 15.657 16.7082C14.7321 17.3621 13.719 17.8094 12.611 18.0398C11.3845 18.2939 10.158 18.2668 8.94161 17.9754C8.29785 17.8195 7.6812 17.5824 7.10182 17.2673C7.00356 17.213 6.91885 17.2097 6.81382 17.2435C5.53647 17.6535 4.25911 18.0601 2.98176 18.4667C2.83606 18.5141 2.69376 18.5582 2.54807 18.6124C2.44642 18.6496 2.43964 18.6124 2.46675 18.5277C2.61583 18.0906 2.76152 17.6535 2.9106 17.213C3.2291 16.261 3.54759 15.3089 3.87286 14.3602C3.9169 14.2348 3.85253 14.1535 3.8017 14.0654C3.40189 13.3708 3.11728 12.6322 2.9411 11.8529C2.55823 10.1724 2.69376 8.52568 3.33752 6.92984C3.71022 6.00824 4.24217 5.18152 4.9232 4.44967C5.79058 3.51452 6.81721 2.82672 8.00308 2.36592C9.11102 1.93562 10.2562 1.7696 11.4353 1.84075C13.0515 1.93901 14.522 2.47434 15.8129 3.45015C17.4833 4.71056 18.5336 6.36739 18.9538 8.42404C19.0656 8.94921 19.1062 9.48116 19.1198 9.91824ZM10.8695 3.21297C10.5544 3.19942 10.1851 3.23669 9.81577 3.2909C9.67008 3.31123 9.52777 3.34172 9.38547 3.37899C7.18313 3.93805 5.60084 5.25267 4.66908 7.32287C4.13036 8.51891 3.98467 9.78271 4.18796 11.077C4.3472 12.1002 4.72668 13.0422 5.31962 13.8926C5.384 13.9875 5.39416 14.0688 5.35689 14.1738C5.10616 14.9091 4.86221 15.6477 4.61487 16.3863C4.60132 16.427 4.56066 16.4744 4.59793 16.5117C4.6352 16.5523 4.68264 16.5083 4.7233 16.4947C5.46531 16.2576 6.20733 16.0238 6.94257 15.7764C7.11198 15.7188 7.23396 15.746 7.37965 15.834C9.04326 16.8336 10.8221 17.0978 12.6957 16.5998C14.1188 16.2237 15.2911 15.4478 16.2195 14.3026C17.1174 13.1946 17.6188 11.9274 17.7205 10.5112C17.7984 9.42356 17.629 8.36644 17.1953 7.35675C16.6498 6.08617 15.7993 5.06971 14.6507 4.31414C13.5259 3.57551 12.2824 3.19603 10.8695 3.21297Z" fill="#170F49"/>
<path d="M6.82422 8.05118C6.83777 7.28884 7.13593 6.66202 7.71871 6.17412C7.88473 6.0352 8.08463 5.9776 8.30487 6.01487C8.39974 6.02842 8.49799 6.04198 8.58947 6.03181C8.81987 6.01487 8.95201 6.14362 9.02317 6.33336C9.24001 6.90258 9.45008 7.47519 9.66354 8.04441C9.7042 8.15283 9.69403 8.25109 9.64321 8.35273C9.51107 8.62718 9.301 8.84064 9.09093 9.05409C8.90797 9.24044 8.8978 9.30143 9.02317 9.52844C9.62965 10.6262 10.4665 11.4801 11.6253 11.9984C11.6829 12.0222 11.7337 12.0628 11.7879 12.0865C11.9336 12.1577 12.0658 12.1509 12.1878 12.0256C12.4249 11.785 12.6452 11.5275 12.8586 11.2632C13.0246 11.0565 13.1026 11.026 13.3364 11.1311C13.9056 11.3953 14.4477 11.7037 15 12.0018C15.1829 12.1001 15.2033 12.2356 15.1762 12.483C15.0643 13.4893 14.2952 13.9467 13.4177 14.0924C13.1229 14.1398 12.8451 14.1127 12.5672 14.0246C11.7541 13.7671 10.9544 13.4689 10.2361 13.0014C9.56528 12.5643 8.98928 12.0188 8.48444 11.3987C7.99315 10.7922 7.55607 10.1519 7.19353 9.45729C6.99024 9.06087 6.82422 8.44422 6.82422 8.05118Z" fill="#170F49"/>
</svg>
