<svg width="40" height="40" viewBox="0 0 40 40" fill="none" xmlns="http://www.w3.org/2000/svg">
<g clip-path="url(#clip0_9_422)">
<path d="M36.25 0H3.75C2.75544 0 1.80161 0.395088 1.09835 1.09835C0.395088 1.80161 0 2.75544 0 3.75L0 36.25C0 37.2446 0.395088 38.1984 1.09835 38.9016C1.80161 39.6049 2.75544 40 3.75 40H36.25C37.2446 40 38.1984 39.6049 38.9016 38.9016C39.6049 38.1984 40 37.2446 40 36.25V3.75C40 2.75544 39.6049 1.80161 38.9016 1.09835C38.1984 0.395088 37.2446 0 36.25 0ZM2.5 3.75C2.5 3.41848 2.6317 3.10054 2.86612 2.86612C3.10054 2.6317 3.41848 2.5 3.75 2.5H36.25C36.5815 2.5 36.8995 2.6317 37.1339 2.86612C37.3683 3.10054 37.5 3.41848 37.5 3.75V7.5H2.5V3.75ZM37.5 36.25C37.5 36.5815 37.3683 36.8995 37.1339 37.1339C36.8995 37.3683 36.5815 37.5 36.25 37.5H3.75C3.41848 37.5 3.10054 37.3683 2.86612 37.1339C2.6317 36.8995 2.5 36.5815 2.5 36.25V10H37.5V36.25Z" fill="#170F49"/>
<circle cx="6.25" cy="5.0127" r="1.25" fill="#170F49"/>
<circle cx="10" cy="5.0127" r="1.25" fill="#170F49"/>
<circle cx="13.75" cy="5.0127" r="1.25" fill="#170F49"/>
<path d="M26.5831 24.55C26.4495 24.3979 26.3758 24.2024 26.3758 24C26.3758 23.7976 26.4495 23.6021 26.5831 23.45L27.6498 22.25C27.7673 22.1189 27.8403 21.9539 27.8582 21.7787C27.8762 21.6036 27.8382 21.4272 27.7498 21.275L26.0831 18.3917C25.9955 18.2396 25.8622 18.1191 25.702 18.0472C25.5419 17.9754 25.3632 17.956 25.1914 17.9917L23.6248 18.3083C23.4254 18.3495 23.2179 18.3163 23.0413 18.215C22.8648 18.1137 22.7314 17.9512 22.6664 17.7583L22.1581 16.2333C22.1022 16.0678 21.9957 15.924 21.8536 15.8224C21.7115 15.7207 21.5411 15.6662 21.3664 15.6667H18.0331C17.8514 15.6572 17.6715 15.7074 17.5211 15.8098C17.3706 15.9121 17.2577 16.0608 17.1998 16.2333L16.7331 17.7583C16.6681 17.9512 16.5347 18.1137 16.3582 18.215C16.1816 18.3163 15.9741 18.3495 15.7748 18.3083L14.1664 17.9917C14.0035 17.9686 13.8375 17.9943 13.6892 18.0655C13.5409 18.1367 13.417 18.2502 13.3331 18.3917L11.6664 21.275C11.5757 21.4255 11.5349 21.6009 11.5499 21.776C11.5649 21.9511 11.6348 22.117 11.7498 22.25L12.8081 23.45C12.9417 23.6021 13.0154 23.7976 13.0154 24C13.0154 24.2024 12.9417 24.3979 12.8081 24.55L11.7498 25.75C11.6348 25.883 11.5649 26.0489 11.5499 26.224C11.5349 26.3991 11.5757 26.5745 11.6664 26.725L13.3331 29.6083C13.4207 29.7604 13.554 29.8809 13.7141 29.9528C13.8742 30.0246 14.0529 30.044 14.2248 30.0083L15.7914 29.6917C15.9908 29.6505 16.1983 29.6837 16.3748 29.785C16.5514 29.8863 16.6848 30.0488 16.7498 30.2417L17.2581 31.7667C17.3161 31.9391 17.4289 32.0879 17.5794 32.1902C17.7299 32.2926 17.9097 32.3428 18.0914 32.3333H21.4248C21.5995 32.3338 21.7699 32.2793 21.9119 32.1776C22.054 32.0759 22.1605 31.9322 22.2164 31.7667L22.7248 30.2417C22.7898 30.0488 22.9231 29.8863 23.0997 29.785C23.2762 29.6837 23.4837 29.6505 23.6831 29.6917L25.2498 30.0083C25.4216 30.044 25.6003 30.0246 25.7604 29.9528C25.9205 29.8809 26.0538 29.7604 26.1414 29.6083L27.8081 26.725C27.8966 26.5728 27.9345 26.3964 27.9166 26.2212C27.8986 26.0461 27.8256 25.8811 27.7081 25.75L26.5831 24.55ZM25.3414 25.6667L26.0081 26.4167L24.9414 28.2667L23.9581 28.0667C23.3579 27.944 22.7336 28.0459 22.2036 28.3532C21.6736 28.6604 21.2749 29.1515 21.0831 29.7333L20.7664 30.6667H18.6331L18.3331 29.7167C18.1413 29.1349 17.7426 28.6437 17.2126 28.3365C16.6826 28.0293 16.0583 27.9273 15.4581 28.05L14.4748 28.25L13.3914 26.4083L14.0581 25.6583C14.468 25.2 14.6947 24.6066 14.6947 23.9917C14.6947 23.3767 14.468 22.7833 14.0581 22.325L13.3914 21.575L14.4581 19.7417L15.4414 19.9417C16.0416 20.0643 16.6659 19.9624 17.1959 19.6552C17.7259 19.3479 18.1246 18.8568 18.3164 18.275L18.6331 17.3333H20.7664L21.0831 18.2833C21.2749 18.8651 21.6736 19.3563 22.2036 19.6635C22.7336 19.9707 23.3579 20.0727 23.9581 19.95L24.9414 19.75L26.0081 21.6L25.3414 22.35C24.9361 22.8073 24.7122 23.3972 24.7122 24.0083C24.7122 24.6194 24.9361 25.2094 25.3414 25.6667ZM19.6998 20.6667C19.0405 20.6667 18.396 20.8622 17.8478 21.2284C17.2997 21.5947 16.8724 22.1153 16.6202 22.7244C16.3679 23.3335 16.3018 24.0037 16.4305 24.6503C16.5591 25.2969 16.8766 25.8908 17.3427 26.357C17.8089 26.8232 18.4028 27.1407 19.0494 27.2693C19.6961 27.3979 20.3663 27.3319 20.9754 27.0796C21.5844 26.8273 22.105 26.4001 22.4713 25.8519C22.8376 25.3037 23.0331 24.6593 23.0331 24C23.0331 23.1159 22.6819 22.2681 22.0568 21.643C21.4317 21.0179 20.5838 20.6667 19.6998 20.6667ZM19.6998 25.6667C19.3701 25.6667 19.0479 25.5689 18.7738 25.3858C18.4997 25.2026 18.2861 24.9423 18.16 24.6378C18.0338 24.3333 18.0008 23.9981 18.0651 23.6748C18.1294 23.3515 18.2882 23.0546 18.5212 22.8215C18.7543 22.5884 19.0513 22.4297 19.3746 22.3654C19.6979 22.301 20.033 22.334 20.3376 22.4602C20.6421 22.5863 20.9024 22.8 21.0855 23.074C21.2687 23.3481 21.3664 23.6704 21.3664 24C21.3664 24.442 21.1908 24.8659 20.8783 25.1785C20.5657 25.4911 20.1418 25.6667 19.6998 25.6667Z" fill="#170F49"/>
</g>
<defs>
<clipPath id="clip0_9_422">
<rect width="40" height="40" fill="white"/>
</clipPath>
</defs>
</svg>
